<?xml version="1.0" encoding="utf-8"?>
<!-- Generator: Adobe Illustrator 22.1.0, SVG Export Plug-In . SVG Version: 6.00 Build 0)  -->
<svg version="1.1" id="Layer_1" xmlns="http://www.w3.org/2000/svg" xmlns:xlink="http://www.w3.org/1999/xlink" x="0px" y="0px"
	 viewBox="0 0 160.6 24.6" style="enable-background:new 0 0 160.6 24.6;" xml:space="preserve">
<style type="text/css">
	.st0{fill:#ECECEC;}
	.st1{fill:url(#SVGID_1_);}
	.st2{fill:url(#SVGID_2_);}
</style>
<title>Asset 5</title>
<g>
	<path class="st0" d="M0,12.3C0,5.1,5.2,0,12.7,0c3.1,0,6.1,0.9,8.6,2.6l-2.7,4.2C16.8,5.6,14.9,5,12.8,5c-4.4,0-7.4,2.9-7.4,7.2
		c0,4.3,3,7.2,7.4,7.2c2,0,3.9-0.6,5.8-1.8l2.7,4.2c-2.5,1.7-5.5,2.6-8.6,2.6C5.2,24.6,0,19.4,0,12.3z"/>
	<path class="st0" d="M28.8,24.1h-5.1V0h5.1V24.1z"/>
	<linearGradient id="SVGID_1_" gradientUnits="userSpaceOnUse" x1="46.1701" y1="22.4119" x2="33.0927" y2="9.0966">
		<stop  offset="0" style="stop-color:#ECECEC"/>
		<stop  offset="1" style="stop-color:#ECECEC;stop-opacity:0"/>
	</linearGradient>
	<path class="st1" d="M48.9,16.3c0,5-3.7,8.3-8.7,8.3c-5.1,0-8.8-3.3-8.8-8.3S35.1,8,40.2,8C45.2,8,48.9,11.3,48.9,16.3z M36.5,16.3
		c0,2.2,1.6,3.6,3.6,3.6s3.6-1.4,3.6-3.6s-1.6-3.6-3.6-3.6S36.5,14,36.5,16.3z"/>
	<path class="st0" d="M50.6,16.3c0-4.9,3.5-8.3,8.7-8.3c2.1,0,3.9,0.5,5.6,1.5l-2.1,4.1c-1.1-0.7-2.1-0.9-3.3-0.9
		c-2.2,0-3.8,1.5-3.8,3.6c0,2.1,1.6,3.6,3.8,3.6c1.3,0,2.3-0.3,3.3-0.9l2.1,4.1c-1.8,1-3.5,1.5-5.6,1.5
		C54.1,24.6,50.6,21.2,50.6,16.3z"/>
	<path class="st0" d="M72.1,11.5c0,1.7-0.2,2.9-0.6,3.8l0.1,0l5.8-6.9h6.1l-5.4,5.8c-0.8,0.8-1.3,1.2-1.7,1.3v0.1
		c0.4,0.1,0.7,0.4,1.4,1.1l6.1,7.2h-6.4l-5.9-7.7l-0.1,0.1c0.4,0.8,0.6,1.9,0.6,3.5v4.1H67V0h5.1V11.5z"/>
	<path class="st0" d="M84,8.5h5.6l1.9,4.7c0.6,1.6,0.9,2.1,1,3.1h0.1c0.2-1,0.4-1.4,1.2-3.1l2.5-5h1.2l2.5,5
		c0.9,1.7,1.1,2.2,1.2,3.1h0.1c0.2-1,0.4-1.6,1-3.1l1.9-4.7h5.6l-7.5,15.9h-1.4l-2.8-5.5c-0.8-1.7-1.1-2.2-1.3-3.2H97
		c-0.2,1-0.5,1.5-1.3,3.2l-2.8,5.5h-1.4L84,8.5z"/>
	<linearGradient id="SVGID_2_" gradientUnits="userSpaceOnUse" x1="128.7809" y1="25.8669" x2="110.2347" y2="6.3696">
		<stop  offset="0" style="stop-color:#ECECEC"/>
		<stop  offset="1" style="stop-color:#ECECEC;stop-opacity:0"/>
	</linearGradient>
	<path class="st2" d="M128.4,16.3c0,5-3.7,8.3-8.7,8.3c-5.1,0-8.8-3.3-8.8-8.3s3.7-8.3,8.8-8.3C124.7,8,128.4,11.3,128.4,16.3z
		 M116,16.3c0,2.2,1.6,3.6,3.6,3.6c2.1,0,3.6-1.4,3.6-3.6s-1.6-3.6-3.6-3.6C117.6,12.6,116,14,116,16.3z"/>
	<path class="st0" d="M141.7,8.1v5c-0.8-0.1-1.1-0.1-1.5-0.1c-2.5,0-4,1.2-4,4.7v6.3H131V8.5h4.8c0,1.6-0.1,3.1-0.5,5.1l0.1,0
		c0.8-3.9,2.5-5.6,5-5.6C140.9,8,141.3,8,141.7,8.1z"/>
	<path class="st0" d="M148.7,11.5c0,1.7-0.2,2.9-0.6,3.8l0.1,0l5.8-6.9h6.1l-5.4,5.8c-0.8,0.8-1.3,1.2-1.7,1.3v0.1
		c0.4,0.1,0.7,0.4,1.4,1.1l6.1,7.2h-6.4l-5.9-7.7l-0.1,0.1c0.4,0.8,0.6,1.9,0.6,3.5v4.1h-5.1V0h5.1V11.5z"/>
</g>
</svg>
